<?xml version="1.0" encoding="utf-8"?>
<!-- Generator: Adobe Illustrator 18.1.0, SVG Export Plug-In . SVG Version: 6.00 Build 0)  -->
<!DOCTYPE svg PUBLIC "-//W3C//DTD SVG 1.1//EN" "http://www.w3.org/Graphics/SVG/1.1/DTD/svg11.dtd">
<svg version="1.1" id="Layer_1" xmlns="http://www.w3.org/2000/svg" xmlns:xlink="http://www.w3.org/1999/xlink" x="0px" y="0px"
	 viewBox="0 276.6 123.1 83.4" enable-background="new 0 276.6 123.1 83.4" xml:space="preserve">
<path id="Behance" fill="#E9004C" stroke="#E9004C" stroke-width="0.3118" stroke-miterlimit="10" d="M107.4,294.3H79.6v-6.9h27.7
	L107.4,294.3L107.4,294.3z M61.2,322.5c1.8,2.8,2.7,6.1,2.7,10.1c0,4.1-1,7.8-3.1,11c-1.3,2.1-2.9,4-4.9,5.4
	c-2.2,1.7-4.8,2.8-7.8,3.5c-3,0.6-6.2,0.9-9.7,0.9h-31v-68.9h33.3c8.4,0.1,14.3,2.6,17.8,7.3c2.1,2.9,3.1,6.4,3.1,10.5
	c0,4.2-1.1,7.6-3.2,10.1c-1.2,1.4-2.9,2.7-5.2,3.9C56.7,317.7,59.4,319.8,61.2,322.5z M23.3,311.7h14.6c3,0,5.4-0.6,7.3-1.7
	c1.9-1.1,2.8-3.2,2.8-6.1c0-3.2-1.2-5.3-3.7-6.4c-2.1-0.7-4.8-1.1-8.1-1.1H23.3V311.7z M49.4,331.6c0-3.6-1.5-6-4.4-7.4
	c-1.6-0.8-3.9-1.1-6.9-1.2H23.3v18.3h14.6c3,0,5.3-0.4,7-1.2C47.8,338.7,49.4,335.9,49.4,331.6z M117.7,320.4
	c0.3,2.3,0.5,5.5,0.4,9.8H82.2c0.2,5,1.9,8.4,5.2,10.4c2,1.2,4.3,1.9,7.1,1.9c2.9,0,5.3-0.7,7.2-2.3c1-0.8,1.9-1.9,2.6-3.4h13.2
	c-0.3,2.9-1.9,5.9-4.8,8.9c-4.4,4.8-10.6,7.2-18.6,7.2c-6.6,0-12.4-2-17.4-6.1c-5-4.1-7.5-10.6-7.5-19.8c0-8.6,2.3-15.1,6.8-19.7
	c4.5-4.6,10.4-6.8,17.6-6.8c4.3,0,8.2,0.8,11.6,2.3c3.4,1.5,6.3,4,8.5,7.3C115.7,313.2,117,316.6,117.7,320.4z M104.7,321.7
	c-0.2-3.4-1.4-6-3.4-7.8c-2-1.8-4.6-2.7-7.6-2.7c-3.3,0-5.9,1-7.7,2.8c-1.8,1.9-3,4.4-3.4,7.6C82.5,321.7,104.7,321.7,104.7,321.7z"
	/>
</svg>
