<?xml version="1.0" encoding="utf-8"?>
<!-- Generator: Adobe Illustrator 18.1.0, SVG Export Plug-In . SVG Version: 6.00 Build 0)  -->
<!DOCTYPE svg PUBLIC "-//W3C//DTD SVG 1.1//EN" "http://www.w3.org/Graphics/SVG/1.1/DTD/svg11.dtd">
<svg version="1.1" id="Layer_1" xmlns="http://www.w3.org/2000/svg" xmlns:xlink="http://www.w3.org/1999/xlink" x="0px" y="0px"
	 viewBox="0 276.6 123.1 83.4" enable-background="new 0 276.6 123.1 83.4" xml:space="preserve">
<path id="LinkedIn" fill="#E9004C" stroke="#E9004C" stroke-width="0.2036" stroke-miterlimit="10" d="M100.9,326.1v26.7H85.4v-24.9
	c0-6.3-2.2-10.5-7.8-10.5c-4.3,0-6.8,2.9-7.9,5.7c-0.4,1-0.5,2.4-0.5,3.8v26H53.6c0,0,0.2-42.2,0-46.6h15.5v6.6c0,0-0.1,0.1-0.1,0.2
	h0.1v-0.2c2.1-3.2,5.7-7.7,14-7.7C93.3,305.1,100.9,311.8,100.9,326.1z M37.4,283.8c-5.3,0-8.8,3.5-8.8,8c0,4.5,3.4,8.1,8.6,8.1h0.1
	c5.4,0,8.8-3.6,8.8-8.1C46,287.2,42.7,283.8,37.4,283.8z M29.6,352.8h15.5v-46.6H29.6V352.8z"/>
</svg>
