<?xml version="1.0" encoding="utf-8"?>
<!-- Generator: Adobe Illustrator 18.1.0, SVG Export Plug-In . SVG Version: 6.00 Build 0)  -->
<!DOCTYPE svg PUBLIC "-//W3C//DTD SVG 1.1//EN" "http://www.w3.org/Graphics/SVG/1.1/DTD/svg11.dtd">
<svg version="1.1" id="Layer_1" xmlns="http://www.w3.org/2000/svg" xmlns:xlink="http://www.w3.org/1999/xlink" x="0px" y="0px"
	 viewBox="0 0 504 360" enable-background="new 0 0 504 360" xml:space="preserve">
<path fill="#E9004C" stroke="#E9004C" stroke-width="0.2536" stroke-miterlimit="10" d="M466.8,251.1
	c-41.2,54.5-89.1,57.2-105.1,57.2c-65.2,0-126.3-57.2-126.3-126.3c0-66.5,55.9-129,126.3-129c18.6,0,71.8,5.3,103.7,54.5h33.2
	c-10.6-27.9-59.8-82.4-137-82.4c-73.1,0-135.6,49.2-151.6,119.7L163.6,26.4h-31.9L6.6,334.9l35.9-10.6l35.9-91.8h135.6l2.7,5.3
	c22.6,58.5,81.1,98.4,146.3,98.4c47.9,0,106.4-27.1,138.3-85.6L466.8,251.1z M86.4,207.3l59.8-151.6l57.2,152.9h-117V207.3z"/>
</svg>
