<?xml version="1.0" encoding="utf-8"?>
<!-- Generator: Adobe Illustrator 18.1.0, SVG Export Plug-In . SVG Version: 6.00 Build 0)  -->
<!DOCTYPE svg PUBLIC "-//W3C//DTD SVG 1.1//EN" "http://www.w3.org/Graphics/SVG/1.1/DTD/svg11.dtd">
<svg version="1.1" id="Layer_1" xmlns="http://www.w3.org/2000/svg" xmlns:xlink="http://www.w3.org/1999/xlink" x="0px" y="0px"
	 viewBox="0 0 37.9 24.1" enable-background="new 0 0 37.9 24.1" xml:space="preserve">
<path fill="#E9004C" stroke="#E9004C" stroke-width="0.2536" stroke-miterlimit="10" d="M35.1,17.4c-3.1,4.1-6.7,4.3-7.9,4.3
	c-4.9,0-9.5-4.3-9.5-9.5c0-5,4.2-9.7,9.5-9.7c1.4,0,5.4,0.4,7.8,4.1h2.5C36.7,4.5,33,0.4,27.2,0.4c-5.5,0-10.2,3.7-11.4,9l-3.5-8.9
	H9.9L0.5,23.7l2.7-0.8L5.9,16h10.2l0.2,0.4c1.7,4.4,6.1,7.4,11,7.4c3.6,0,8-1.9,10.4-6.3H35.1z M6.5,14.1L11,2.7l4.3,11.5H6.5z"/>
</svg>
