<?xml version="1.0" encoding="utf-8"?>
<!-- Generator: Adobe Illustrator 18.1.1, SVG Export Plug-In . SVG Version: 6.00 Build 0)  -->
<!DOCTYPE svg PUBLIC "-//W3C//DTD SVG 1.1//EN" "http://www.w3.org/Graphics/SVG/1.1/DTD/svg11.dtd">
<svg version="1.1" id="Layer_1" xmlns="http://www.w3.org/2000/svg" xmlns:xlink="http://www.w3.org/1999/xlink" x="0px" y="0px"
	 viewBox="0 0 18 18" enable-background="new 0 0 18 18" xml:space="preserve">
<g>
	<g>
		<g>
			<path d="M1.5,6.9c5,0,10,0,15,0c1.8,0,1.8-2.7,0-2.7c-5,0-10,0-15,0C-0.3,4.1-0.3,6.9,1.5,6.9L1.5,6.9z"/>
		</g>
	</g>
	<g>
		<g>
			<path d="M1.5,10.9c5,0,10,0,15,0c1.8,0,1.8-2.7,0-2.7c-5,0-10,0-15,0C-0.3,8.1-0.3,10.9,1.5,10.9L1.5,10.9z"/>
		</g>
	</g>
	<g>
		<g>
			<path d="M1.5,14.9c5,0,10,0,15,0c1.8,0,1.8-2.7,0-2.7c-5,0-10,0-15,0C-0.3,12.1-0.3,14.9,1.5,14.9L1.5,14.9z"/>
		</g>
	</g>
</g>
</svg>
